PathFileType	3	(X/Y/Z)	feet_movements_1__view1_aligned.trc
DataRate	CameraRate	NumFrames	NumMarkers	Units	OrigDataRate	OrigDataStartFrame	OrigNumFrames
100.0	100.0	15	19	mm	100.0	1551	1840
Frame#	Time	pelvis			neck			head			hip_left			hip_right			knee_left			knee_right			ankle_left			ankle_right			heel_left			heel_right			toe_left			toe_right			shoulder_left			shoulder_right			elbow_left			elbow_right			wrist_left			wrist_right			
		X1	Y1	Z1	X2	Y2	Z2	X3	Y3	Z3	X4	Y4	Z4	X5	Y5	Z5	X6	Y6	Z6	X7	Y7	Z7	X8	Y8	Z8	X9	Y9	Z9	X10	Y10	Z10	X11	Y11	Z11	X12	Y12	Z12	X13	Y13	Z13	X14	Y14	Z14	X15	Y15	Z15	X16	Y16	Z16	X17	Y17	Z17	X18	Y18	Z18	X19	Y19	Z19	
1551	15.50000	110.346719	960.221122	515.786599	162.055713	1481.112177	539.247131	197.931009	1590.883958	413.218688	33.306576	983.932428	481.796764	187.386503	936.509833	549.776779	119.397164	1107.915173	76.333483	184.617159	531.547329	399.368988	114.861651	706.961044	49.033922	75.316014	146.179488	467.112963	104.668706	669.750936	89.019203	53.673520	102.893064	504.391017	178.173209	579.680441	-96.864138	116.915973	57.505056	290.589776	-26.672664	1436.920196	520.355721	332.607267	1436.410821	623.633229	-184.097531	1210.471073	414.415082	397.357846	1157.952738	590.678002	-264.340256	1055.211057	212.827278	489.665168	1099.369556	353.710019
1552	15.51000	110.857042	960.083280	514.899925	162.771503	1480.899952	538.494900	198.720012	1590.610443	412.426882	33.842950	983.834148	480.905258	187.870846	936.332426	548.894868	119.837387	1107.828081	75.403433	185.257993	531.545354	398.263117	113.590337	706.778463	47.804696	75.739116	146.355861	466.568900	103.057328	669.876711	88.039278	54.085403	103.130566	503.912804	177.440146	577.309167	-97.034785	117.269129	57.386012	290.198359	-25.971266	1436.687659	519.617743	333.282059	1436.218045	622.865010	-183.341166	1210.242535	413.491017	398.109411	1157.720034	589.791287	-263.345089	1055.112906	211.678546	490.514525	1098.923692	352.867532
1553	15.52000	111.367364	959.945438	514.013251	163.487293	1480.687726	537.742668	199.509015	1590.336927	411.635077	34.379324	983.735867	480.013752	188.355189	936.155019	548.012958	120.277611	1107.740989	74.473383	185.898827	531.543379	397.157245	112.319022	706.595883	46.575470	76.162217	146.532233	466.024837	101.445949	670.002486	87.059354	54.497285	103.368068	503.434591	176.707083	574.937893	-97.205433	117.622286	57.266968	289.806942	-25.269867	1436.455121	518.879765	333.956850	1436.025270	622.096792	-182.584800	1210.013997	412.566952	398.860976	1157.487331	588.904571	-262.349923	1055.014754	210.529815	491.363881	1098.477828	352.025045
1554	15.53000	111.877687	959.807596	513.126578	164.203082	1480.475500	536.990436	200.298019	1590.063412	410.843271	34.915698	983.637587	479.122246	188.839532	935.977612	547.131047	120.717834	1107.653897	73.543334	186.539661	531.541404	396.051374	111.047708	706.413302	45.346244	76.585319	146.708606	465.480774	99.834570	670.128261	86.079430	54.909168	103.605570	502.956378	175.974021	572.566619	-97.376080	117.975442	57.147924	289.415525	-24.568469	1436.222583	518.141787	334.631642	1435.832494	621.328573	-181.828435	1209.785459	411.642888	399.612540	1157.254628	588.017856	-261.354756	1054.916603	209.381084	492.213238	1098.031964	351.182558
1555	15.54000	112.388010	959.669754	512.239904	164.918872	1480.263274	536.238205	201.087022	1589.789897	410.051466	35.452072	983.539307	478.230740	189.323875	935.800205	546.249137	121.158058	1107.566805	72.613284	187.180495	531.539429	394.945502	109.776394	706.230721	44.117018	77.008421	146.884978	464.936710	98.223191	670.254037	85.099506	55.321051	103.843073	502.478165	175.240958	570.195345	-97.546728	118.328599	57.028880	289.024108	-23.867071	1435.990045	517.403809	335.306433	1435.639719	620.560355	-181.072070	1209.556920	410.718823	400.364105	1157.021924	587.131141	-260.359589	1054.818451	208.232353	493.062594	1097.586101	350.340071
1556	15.55000	112.898332	959.531912	511.353230	165.634662	1480.051048	535.485973	201.876026	1589.516381	409.259660	35.988447	983.441027	477.339235	189.808218	935.622798	545.367226	121.598281	1107.479713	71.683234	187.821329	531.537454	393.839631	108.505080	706.048140	42.887792	77.431523	147.061351	464.392647	96.611812	670.379812	84.119582	55.732933	104.080575	501.999952	174.507895	567.824070	-97.717375	118.681755	56.909836	288.632691	-23.165673	1435.757507	516.665830	335.981225	1435.446943	619.792136	-180.315704	1209.328382	409.794758	401.115670	1156.789221	586.244425	-259.364422	1054.720300	207.083622	493.911951	1097.140237	349.497584
1557	15.56000	113.408655	959.394071	510.466557	166.350452	1479.838822	534.733741	202.665029	1589.242866	408.467855	36.524821	983.342747	476.447729	190.292561	935.445391	544.485315	122.038505	1107.392620	70.753185	188.462164	531.535479	392.733759	107.233765	705.865559	41.658566	77.854624	147.237723	463.848584	95.000433	670.505587	83.139658	56.144816	104.318077	501.521739	173.774833	565.452796	-97.888023	119.034912	56.790792	288.241274	-22.464275	1435.524969	515.927852	336.656016	1435.254167	619.023918	-179.559339	1209.099844	408.870693	401.867235	1156.556517	585.357710	-258.369255	1054.622148	205.934891	494.761307	1096.694373	348.655097
1558	15.57000	113.918977	959.256229	509.579883	167.066242	1479.626597	533.981510	203.454033	1588.969351	407.676049	37.061195	983.244467	475.556223	190.776904	935.267984	543.603405	122.478728	1107.305528	69.823135	189.102998	531.533504	391.627888	105.962451	705.682979	40.429340	78.277726	147.414096	463.304521	93.389054	670.631363	82.159734	56.556698	104.555579	501.043526	173.041770	563.081522	-98.058670	119.388068	56.671748	287.849857	-21.762877	1435.292431	515.189874	337.330808	1435.061392	618.255699	-178.802974	1208.871306	407.946629	402.618800	1156.323814	584.470995	-257.374089	1054.523997	204.786159	495.610663	1096.248509	347.812610
1559	15.58000	114.429300	959.118387	508.693209	167.782031	1479.414371	533.229278	204.243036	1588.695835	406.884244	37.597569	983.146186	474.664717	191.261247	935.090577	542.721494	122.918952	1107.218436	68.893085	189.743832	531.531529	390.522016	104.691137	705.500398	39.200114	78.700828	147.590468	462.760457	91.777675	670.757138	81.179810	56.968581	104.793082	500.565313	172.308707	560.710248	-98.229318	119.741225	56.552704	287.458440	-21.061479	1435.059894	514.451896	338.005599	1434.868616	617.487481	-178.046609	1208.642768	407.022564	403.370365	1156.091111	583.584279	-256.378922	1054.425846	203.637428	496.460020	1095.802645	346.970123
1560	15.59000	114.939623	958.980545	507.806535	168.497821	1479.202145	532.477047	205.032039	1588.422320	406.092438	38.133943	983.047906	473.773212	191.745590	934.913170	541.839584	123.359175	1107.131344	67.963036	190.384666	531.529554	389.416145	103.419822	705.317817	37.970888	79.123930	147.766841	462.216394	90.166296	670.882913	80.199885	57.380464	105.030584	500.087100	171.575645	558.338974	-98.399966	120.094382	56.433660	287.067024	-20.360081	1434.827356	513.713918	338.680391	1434.675841	616.719262	-177.290243	1208.414230	406.098499	404.121930	1155.858407	582.697564	-255.383755	1054.327694	202.488697	497.309376	1095.356781	346.127636
1561	15.60000	115.449945	958.842703	506.919862	169.213611	1478.989919	531.724815	205.821043	1588.148805	405.300633	38.670317	982.949626	472.881706	192.229933	934.735763	540.957673	123.799399	1107.044252	67.032986	191.025500	531.527579	388.310274	102.148508	705.135236	36.741662	79.547031	147.943213	461.672331	88.554918	671.008688	79.219961	57.792346	105.268086	499.608888	170.842582	555.967700	-98.570613	120.447538	56.314617	286.675607	-19.658683	1434.594818	512.975939	339.355182	1434.483065	615.951044	-176.533878	1208.185691	405.174435	404.873495	1155.625704	581.810848	-254.388588	1054.229543	201.339966	498.158733	1094.910917	345.285149
1562	15.61000	115.737745	958.596338	506.277253	169.258912	1478.771871	531.748398	205.656143	1588.268491	405.654037	38.922832	982.679828	472.251830	192.552942	934.512834	540.302396	123.467963	1105.547341	65.922580	191.845975	531.528837	387.108748	101.321317	703.748211	34.509482	80.414315	148.062869	460.954619	87.786790	669.662266	76.956624	58.666504	105.415294	498.930423	169.696071	554.249429	-100.520381	121.282700	56.339490	286.017208	-19.587766	1434.169385	512.889528	339.513528	1434.350017	615.821445	-176.240743	1207.778708	404.652992	405.592550	1155.642593	580.975946	-253.800425	1054.070672	200.497014	498.986864	1094.717120	344.484144
1563	15.62000	116.025545	958.349972	505.634645	169.304213	1478.553823	531.771981	205.491243	1588.388177	406.007442	39.175346	982.410030	471.621954	192.875951	934.289905	539.647119	123.136528	1104.050430	64.812173	192.666450	531.530096	385.907223	100.494127	702.361185	32.277301	81.281599	148.182525	460.236907	87.018663	668.315843	74.693288	59.540661	105.562502	498.251958	168.549559	552.531157	-102.470149	122.117861	56.364363	285.358809	-19.516849	1433.743951	512.803116	339.671874	1434.216969	615.691846	-175.947609	1207.371725	404.131550	406.311604	1155.659482	580.141043	-253.212262	1053.911802	199.654062	499.814996	1094.523323	343.683140
1564	15.63000	116.313345	958.103607	504.992036	169.349513	1478.335775	531.795564	205.326342	1588.507863	406.360846	39.427861	982.140232	470.992079	193.198960	934.066975	538.991842	122.805092	1102.553518	63.701767	193.486925	531.531354	384.705698	99.666936	700.974160	30.045120	82.148883	148.302181	459.519195	86.250535	666.969421	72.429951	60.414818	105.709710	497.573493	167.403048	550.812886	-104.419917	122.953022	56.389236	284.700410	-19.445932	1433.318518	512.716705	339.830220	1434.083922	615.562247	-175.654474	1206.964742	403.610108	407.030659	1155.676371	579.306141	-252.624099	1053.752932	198.811110	500.643128	1094.329525	342.882135
1565	15.64000	116.601144	957.857242	504.349428	169.394814	1478.117726	531.819146	205.161442	1588.627549	406.714251	39.680375	981.870433	470.362203	193.521970	933.844046	538.336565	122.473657	1101.056607	62.591361	194.307400	531.532613	383.504172	98.839745	699.587134	27.812940	83.016167	148.421837	458.801482	85.482408	665.622998	70.166614	61.288975	105.856918	496.895028	166.256536	549.094615	-106.369685	123.788183	56.414109	284.042011	-19.375015	1432.893085	512.630293	339.988566	1433.950874	615.432648	-175.361340	1206.557759	403.088666	407.749713	1155.693261	578.471238	-252.035936	1053.594061	197.968159	501.471259	1094.135728	342.081131
